<svg xmlns="http://www.w3.org/2000/svg" xmlns:xlink="http://www.w3.org/1999/xlink" x="0px" y="0px"
	 viewBox="0 0 131.57 30.61" style="enable-background:new 0 0 131.57 30.61;" xml:space="preserve">
<g>
	<path d="M0.24,9.27h11.54v1.68H6.96v6.77c0,5.5,2.47,8.16,4.99,9.38v1.78c-2.74-1.08-5.04-3.43-5.98-6.02
		C5.09,25.45,2.69,27.85,0,28.88v-1.78c2.45-1.18,5.02-3.89,5.02-9.38v-6.77H0.24V9.27z M17.55,8.89v21.46H15.6V8.89H17.55z"/>
	<path d="M22.63,19.98v-1.7h19.35v1.7H22.63z M38.59,13.09v-2.26H23.93v-1.7h16.59v3.89c0,1.2-0.12,2.62-0.41,3.65h-1.87
		C38.5,15.64,38.59,14.24,38.59,13.09z M40.51,30.61H24.1v-7.56h16.42V30.61z M38.59,28.98v-4.27H26.02v4.27H38.59z"/>
	<path d="M46.32,19.04c0-4.03,0.48-7.01,1.92-8.64c0.84-0.98,2.06-1.51,3.58-1.51c1.49,0,2.74,0.53,3.58,1.51
		c1.46,1.63,1.92,4.61,1.92,8.64c0,4.01-0.46,6.98-1.92,8.64c-0.84,1.01-2.09,1.46-3.58,1.46c-1.51,0-2.74-0.46-3.58-1.46
		C46.8,26.03,46.32,23.05,46.32,19.04z M55.39,19.04c0-3.65-0.34-6.26-1.42-7.51c-0.5-0.62-1.25-0.96-2.16-0.96
		c-0.89,0-1.63,0.34-2.18,0.96c-1.03,1.25-1.39,3.86-1.39,7.51c0,3.62,0.36,6.26,1.39,7.54c0.55,0.62,1.3,0.94,2.18,0.94
		c0.91,0,1.66-0.31,2.16-0.94C55.06,25.31,55.39,22.67,55.39,19.04z M63.62,8.89v21.46h-1.94V8.89H63.62z"/>
	<g>
		<path d="M87.22,7.78V4.51H76.49V1.37h14.23v5.99c0,11.28-4.19,18.81-14.42,21.42v-3.37C83.82,23.22,87.22,17.04,87.22,7.78z
			 M100.17,0.85v29.67h-3.57V0.85H100.17z"/>
		<path d="M108.35,15.18c0-2.32,1.05-4.09,2.65-5.27c1.34-0.92,3.07-1.47,4.94-1.47c1.83,0,3.57,0.56,4.91,1.44
			c1.64,1.18,2.68,2.98,2.68,5.3c0,2.45-1.15,4.35-3.01,5.49c-0.82,0.49-1.77,0.82-2.81,1.01v4.09h3.99c2.68,0,4.94-0.39,6.31-1.54
			V0.85h3.57v29.67H128v-3.37c-1.28,1.21-3.96,1.67-7.23,1.67h-13.8v-3.04h7.2v-4.09c-1.18-0.23-2.22-0.65-3.14-1.28
			C109.39,19.26,108.35,17.5,108.35,15.18z M114.1,0h3.57v3.6h6.71v3.04H107.5V3.6h6.61V0z M111.88,15.18
			c0,1.18,0.52,2.16,1.34,2.85c0.72,0.56,1.67,0.85,2.71,0.85c1.05,0,2-0.29,2.68-0.82c0.88-0.69,1.41-1.67,1.41-2.88
			c0-1.15-0.46-2.06-1.24-2.75c-0.72-0.62-1.73-1.01-2.85-1.01c-1.11,0-2.16,0.36-2.88,1.01C112.34,13.12,111.88,14.06,111.88,15.18
			z"/>
	</g>
</g>
</svg>
