
<svg xmlns="http://www.w3.org/2000/svg" xmlns:xlink="http://www.w3.org/1999/xlink" x="0px" y="0px"
	 viewBox="0 0 129.31 44.79" style="enable-background:new 0 0 129.31 44.79;" xml:space="preserve">
<g>
	<path d="M0,21.94C0,13.87,0.96,7.92,3.84,4.66c1.68-1.97,4.13-3.02,7.15-3.02c2.98,0,5.47,1.06,7.15,3.02
		c2.93,3.26,3.84,9.22,3.84,17.28c0,8.02-0.91,13.97-3.84,17.28c-1.68,2.02-4.18,2.93-7.15,2.93c-3.02,0-5.47-0.91-7.15-2.93
		C0.96,35.91,0,29.95,0,21.94z M18.15,21.94c0-7.3-0.67-12.53-2.83-15.03c-1.01-1.25-2.5-1.92-4.32-1.92
		c-1.78,0-3.26,0.67-4.37,1.92c-2.06,2.5-2.78,7.73-2.78,15.03c0,7.25,0.72,12.53,2.78,15.07c1.1,1.25,2.59,1.87,4.37,1.87
		c1.82,0,3.31-0.62,4.32-1.87C17.47,34.47,18.15,29.19,18.15,21.94z M34.61,1.63v42.92h-3.89V1.63H34.61z"/>
	<path d="M46.22,24.91V2.11h20.55v22.8H46.22z M81.65,44.79H48.91V30.72h3.89v10.75h28.85V44.79z M62.98,5.47H50.02v16.18h12.96
		V5.47z M80.83,31.54h-3.84V1.63h3.84V31.54z"/>
	<path d="M93.41,22.27c0-2.5,1.1-4.42,3.02-5.86c2.98-2.21,7.87-3.26,13.73-3.26s10.75,1.06,13.73,3.26
		c1.92,1.44,3.02,3.36,3.02,5.86c0,2.45-1.1,4.42-3.02,5.86c-2.64,1.97-6.77,2.98-11.71,3.17v8.02h17.14v3.36H91.1v-3.36h17.23V31.3
		c-5.04-0.19-9.26-1.2-11.91-3.17C94.51,26.69,93.41,24.72,93.41,22.27z M128.02,9.07H92.35V5.71h15.89V0h3.94v5.71h15.84V9.07z
		 M97.25,22.27c0,1.3,0.58,2.35,1.68,3.22c2.06,1.78,6.14,2.59,11.23,2.59s9.12-0.82,11.23-2.59c1.1-0.86,1.68-1.92,1.68-3.22
		c0-1.3-0.58-2.35-1.68-3.26c-2.11-1.73-6.14-2.54-11.23-2.54s-9.17,0.82-11.23,2.54C97.82,19.92,97.25,20.98,97.25,22.27z"/>
</g>
</svg>
